<svg id="visual" viewBox="0 0 900 300" width="900" height="300" xmlns="http://www.w3.org/2000/svg" xmlns:xlink="http://www.w3.org/1999/xlink" version="1.1"><path d="M0 218L12.5 220.5C25 223 50 228 75 224C100 220 125 207 150 202C175 197 200 200 225 206.7C250 213.3 275 223.7 300 229.3C325 235 350 236 375 226.3C400 216.7 425 196.3 450 189.8C475 183.3 500 190.7 525 199.2C550 207.7 575 217.3 600 214.3C625 211.3 650 195.7 675 198C700 200.3 725 220.7 750 227.3C775 234 800 227 825 223.2C850 219.3 875 218.7 887.5 218.3L900 218L900 0L887.5 0C875 0 850 0 825 0C800 0 775 0 750 0C725 0 700 0 675 0C650 0 625 0 600 0C575 0 550 0 525 0C500 0 475 0 450 0C425 0 400 0 375 0C350 0 325 0 300 0C275 0 250 0 225 0C200 0 175 0 150 0C125 0 100 0 75 0C50 0 25 0 12.5 0L0 0Z" fill="#ffffff"></path><path d="M0 195L12.5 187.2C25 179.3 50 163.7 75 156.5C100 149.3 125 150.7 150 153C175 155.3 200 158.7 225 158.5C250 158.3 275 154.7 300 156.7C325 158.7 350 166.3 375 168C400 169.7 425 165.3 450 165.7C475 166 500 171 525 171C550 171 575 166 600 169.2C625 172.3 650 183.7 675 188C700 192.3 725 189.7 750 188.5C775 187.3 800 187.7 825 185.3C850 183 875 178 887.5 175.5L900 173L900 0L887.5 0C875 0 850 0 825 0C800 0 775 0 750 0C725 0 700 0 675 0C650 0 625 0 600 0C575 0 550 0 525 0C500 0 475 0 450 0C425 0 400 0 375 0C350 0 325 0 300 0C275 0 250 0 225 0C200 0 175 0 150 0C125 0 100 0 75 0C50 0 25 0 12.5 0L0 0Z" fill="#bcbec5"></path><path d="M0 110L12.5 115.3C25 120.7 50 131.3 75 131.8C100 132.3 125 122.7 150 119C175 115.3 200 117.7 225 122.7C250 127.7 275 135.3 300 140C325 144.7 350 146.3 375 143.2C400 140 425 132 450 124.8C475 117.7 500 111.3 525 114.3C550 117.3 575 129.7 600 137.5C625 145.3 650 148.7 675 149.3C700 150 725 148 750 142.2C775 136.3 800 126.7 825 128.3C850 130 875 143 887.5 149.5L900 156L900 0L887.5 0C875 0 850 0 825 0C800 0 775 0 750 0C725 0 700 0 675 0C650 0 625 0 600 0C575 0 550 0 525 0C500 0 475 0 450 0C425 0 400 0 375 0C350 0 325 0 300 0C275 0 250 0 225 0C200 0 175 0 150 0C125 0 100 0 75 0C50 0 25 0 12.5 0L0 0Z" fill="#7d818e"></path><path d="M0 69L12.5 73C25 77 50 85 75 88C100 91 125 89 150 89.3C175 89.7 200 92.3 225 96C250 99.7 275 104.3 300 106.8C325 109.3 350 109.7 375 108C400 106.3 425 102.7 450 97.5C475 92.3 500 85.7 525 83.8C550 82 575 85 600 86C625 87 650 86 675 86.5C700 87 725 89 750 87.2C775 85.3 800 79.7 825 77C850 74.3 875 74.7 887.5 74.8L900 75L900 0L887.5 0C875 0 850 0 825 0C800 0 775 0 750 0C725 0 700 0 675 0C650 0 625 0 600 0C575 0 550 0 525 0C500 0 475 0 450 0C425 0 400 0 375 0C350 0 325 0 300 0C275 0 250 0 225 0C200 0 175 0 150 0C125 0 100 0 75 0C50 0 25 0 12.5 0L0 0Z" fill="#43495a"></path><path d="M0 32L12.5 32.7C25 33.3 50 34.7 75 35.3C100 36 125 36 150 36.7C175 37.3 200 38.7 225 43.8C250 49 275 58 300 58.7C325 59.3 350 51.7 375 49.5C400 47.3 425 50.7 450 53.5C475 56.3 500 58.7 525 59.3C550 60 575 59 600 55.8C625 52.7 650 47.3 675 46.2C700 45 725 48 750 52.3C775 56.7 800 62.3 825 61C850 59.7 875 51.3 887.5 47.2L900 43L900 0L887.5 0C875 0 850 0 825 0C800 0 775 0 750 0C725 0 700 0 675 0C650 0 625 0 600 0C575 0 550 0 525 0C500 0 475 0 450 0C425 0 400 0 375 0C350 0 325 0 300 0C275 0 250 0 225 0C200 0 175 0 150 0C125 0 100 0 75 0C50 0 25 0 12.5 0L0 0Z" fill="#0d182b"></path></svg>