<svg id="visual" viewBox="0 0 900 300" width="900" height="300" xmlns="http://www.w3.org/2000/svg" xmlns:xlink="http://www.w3.org/1999/xlink" version="1.1"><rect x="0" y="0" width="900" height="300" fill="#e7e8ff"></rect><path d="M0 237L12.5 230.3C25 223.7 50 210.3 75 202.7C100 195 125 193 150 195.2C175 197.3 200 203.7 225 207.2C250 210.7 275 211.3 300 217C325 222.7 350 233.3 375 237C400 240.7 425 237.3 450 227.2C475 217 500 200 525 190.8C550 181.7 575 180.3 600 180.7C625 181 650 183 675 187.3C700 191.7 725 198.3 750 202.2C775 206 800 207 825 209.5C850 212 875 216 887.5 218L900 220L900 0L887.5 0C875 0 850 0 825 0C800 0 775 0 750 0C725 0 700 0 675 0C650 0 625 0 600 0C575 0 550 0 525 0C500 0 475 0 450 0C425 0 400 0 375 0C350 0 325 0 300 0C275 0 250 0 225 0C200 0 175 0 150 0C125 0 100 0 75 0C50 0 25 0 12.5 0L0 0Z" fill="#d9d9ff"></path><path d="M0 175L12.5 170.2C25 165.3 50 155.7 75 155.3C100 155 125 164 150 165.2C175 166.3 200 159.7 225 154C250 148.3 275 143.7 300 144.7C325 145.7 350 152.3 375 159.5C400 166.7 425 174.3 450 175.7C475 177 500 172 525 168.8C550 165.7 575 164.3 600 164.2C625 164 650 165 675 161.8C700 158.7 725 151.3 750 147.3C775 143.3 800 142.7 825 148.8C850 155 875 168 887.5 174.5L900 181L900 0L887.5 0C875 0 850 0 825 0C800 0 775 0 750 0C725 0 700 0 675 0C650 0 625 0 600 0C575 0 550 0 525 0C500 0 475 0 450 0C425 0 400 0 375 0C350 0 325 0 300 0C275 0 250 0 225 0C200 0 175 0 150 0C125 0 100 0 75 0C50 0 25 0 12.5 0L0 0Z" fill="#a0a3c5"></path><path d="M0 128L12.5 132.3C25 136.7 50 145.3 75 142.8C100 140.3 125 126.7 150 126.3C175 126 200 139 225 138.3C250 137.7 275 123.3 300 117.2C325 111 350 113 375 115.5C400 118 425 121 450 122.8C475 124.7 500 125.3 525 124.2C550 123 575 120 600 119.3C625 118.7 650 120.3 675 121.7C700 123 725 124 750 126.3C775 128.7 800 132.3 825 128.8C850 125.3 875 114.7 887.5 109.3L900 104L900 0L887.5 0C875 0 850 0 825 0C800 0 775 0 750 0C725 0 700 0 675 0C650 0 625 0 600 0C575 0 550 0 525 0C500 0 475 0 450 0C425 0 400 0 375 0C350 0 325 0 300 0C275 0 250 0 225 0C200 0 175 0 150 0C125 0 100 0 75 0C50 0 25 0 12.5 0L0 0Z" fill="#6b718e"></path><path d="M0 78L12.5 82C25 86 50 94 75 94.2C100 94.3 125 86.7 150 84.3C175 82 200 85 225 83.7C250 82.3 275 76.7 300 75C325 73.3 350 75.7 375 81C400 86.3 425 94.7 450 94.2C475 93.7 500 84.3 525 80.5C550 76.7 575 78.3 600 79.2C625 80 650 80 675 82.5C700 85 725 90 750 90.2C775 90.3 800 85.7 825 86C850 86.3 875 91.7 887.5 94.3L900 97L900 0L887.5 0C875 0 850 0 825 0C800 0 775 0 750 0C725 0 700 0 675 0C650 0 625 0 600 0C575 0 550 0 525 0C500 0 475 0 450 0C425 0 400 0 375 0C350 0 325 0 300 0C275 0 250 0 225 0C200 0 175 0 150 0C125 0 100 0 75 0C50 0 25 0 12.5 0L0 0Z" fill="#3a425a"></path><path d="M0 57L12.5 52.5C25 48 50 39 75 36.8C100 34.7 125 39.3 150 43.5C175 47.7 200 51.3 225 52.7C250 54 275 53 300 52.8C325 52.7 350 53.3 375 50C400 46.7 425 39.3 450 38C475 36.7 500 41.3 525 44.8C550 48.3 575 50.7 600 51.5C625 52.3 650 51.7 675 52.2C700 52.7 725 54.3 750 54.7C775 55 800 54 825 51.8C850 49.7 875 46.3 887.5 44.7L900 43L900 0L887.5 0C875 0 850 0 825 0C800 0 775 0 750 0C725 0 700 0 675 0C650 0 625 0 600 0C575 0 550 0 525 0C500 0 475 0 450 0C425 0 400 0 375 0C350 0 325 0 300 0C275 0 250 0 225 0C200 0 175 0 150 0C125 0 100 0 75 0C50 0 25 0 12.5 0L0 0Z" fill="#0d182b"></path></svg>