<svg id="visual" viewBox="0 0 900 300" width="900" height="300" xmlns="http://www.w3.org/2000/svg" xmlns:xlink="http://www.w3.org/1999/xlink" version="1.1"><path d="M0 206L12.5 210.2C25 214.3 50 222.7 75 218.2C100 213.7 125 196.3 150 197.5C175 198.7 200 218.3 225 222.3C250 226.3 275 214.7 300 204.7C325 194.7 350 186.3 375 191.8C400 197.3 425 216.7 450 217.2C475 217.7 500 199.3 525 197.7C550 196 575 211 600 217C625 223 650 220 675 211.5C700 203 725 189 750 185.7C775 182.3 800 189.7 825 196.3C850 203 875 209 887.5 212L900 215L900 0L887.5 0C875 0 850 0 825 0C800 0 775 0 750 0C725 0 700 0 675 0C650 0 625 0 600 0C575 0 550 0 525 0C500 0 475 0 450 0C425 0 400 0 375 0C350 0 325 0 300 0C275 0 250 0 225 0C200 0 175 0 150 0C125 0 100 0 75 0C50 0 25 0 12.5 0L0 0Z" fill="#ffffff"></path><path d="M0 179L12.5 178.2C25 177.3 50 175.7 75 178.3C100 181 125 188 150 186.5C175 185 200 175 225 173C250 171 275 177 300 174.2C325 171.3 350 159.7 375 160.2C400 160.7 425 173.3 450 177.5C475 181.7 500 177.3 525 171.2C550 165 575 157 600 154.5C625 152 650 155 675 162.5C700 170 725 182 750 182.5C775 183 800 172 825 167.7C850 163.3 875 165.7 887.5 166.8L900 168L900 0L887.5 0C875 0 850 0 825 0C800 0 775 0 750 0C725 0 700 0 675 0C650 0 625 0 600 0C575 0 550 0 525 0C500 0 475 0 450 0C425 0 400 0 375 0C350 0 325 0 300 0C275 0 250 0 225 0C200 0 175 0 150 0C125 0 100 0 75 0C50 0 25 0 12.5 0L0 0Z" fill="#c6cede"></path><path d="M0 135L12.5 136C25 137 50 139 75 140.2C100 141.3 125 141.7 150 139.7C175 137.7 200 133.3 225 133.5C250 133.7 275 138.3 300 140.7C325 143 350 143 375 141.5C400 140 425 137 450 132.7C475 128.3 500 122.7 525 126.5C550 130.3 575 143.7 600 143C625 142.3 650 127.7 675 121.5C700 115.3 725 117.7 750 117.8C775 118 800 116 825 113.8C850 111.7 875 109.3 887.5 108.2L900 107L900 0L887.5 0C875 0 850 0 825 0C800 0 775 0 750 0C725 0 700 0 675 0C650 0 625 0 600 0C575 0 550 0 525 0C500 0 475 0 450 0C425 0 400 0 375 0C350 0 325 0 300 0C275 0 250 0 225 0C200 0 175 0 150 0C125 0 100 0 75 0C50 0 25 0 12.5 0L0 0Z" fill="#8ea0be"></path><path d="M0 112L12.5 104.5C25 97 50 82 75 81.8C100 81.7 125 96.3 150 103.8C175 111.3 200 111.7 225 110.7C250 109.7 275 107.3 300 106.8C325 106.3 350 107.7 375 104.3C400 101 425 93 450 89.3C475 85.7 500 86.3 525 89.8C550 93.3 575 99.7 600 100.2C625 100.7 650 95.3 675 94.3C700 93.3 725 96.7 750 94.3C775 92 800 84 825 80.7C850 77.3 875 78.7 887.5 79.3L900 80L900 0L887.5 0C875 0 850 0 825 0C800 0 775 0 750 0C725 0 700 0 675 0C650 0 625 0 600 0C575 0 550 0 525 0C500 0 475 0 450 0C425 0 400 0 375 0C350 0 325 0 300 0C275 0 250 0 225 0C200 0 175 0 150 0C125 0 100 0 75 0C50 0 25 0 12.5 0L0 0Z" fill="#55749e"></path><path d="M0 57L12.5 58C25 59 50 61 75 62.2C100 63.3 125 63.7 150 58.7C175 53.7 200 43.3 225 40.2C250 37 275 41 300 46.2C325 51.3 350 57.7 375 60.7C400 63.7 425 63.3 450 60.5C475 57.7 500 52.3 525 51.7C550 51 575 55 600 56C625 57 650 55 675 50.3C700 45.7 725 38.3 750 38.7C775 39 800 47 825 53C850 59 875 63 887.5 65L900 67L900 0L887.5 0C875 0 850 0 825 0C800 0 775 0 750 0C725 0 700 0 675 0C650 0 625 0 600 0C575 0 550 0 525 0C500 0 475 0 450 0C425 0 400 0 375 0C350 0 325 0 300 0C275 0 250 0 225 0C200 0 175 0 150 0C125 0 100 0 75 0C50 0 25 0 12.5 0L0 0Z" fill="#004b7f"></path></svg>