<svg id="visual" viewBox="0 0 900 600" width="900" height="600" xmlns="http://www.w3.org/2000/svg" xmlns:xlink="http://www.w3.org/1999/xlink" version="1.1"><path d="M0 580L11.5 566.8C23 553.7 46 527.3 69 517.5C92 507.7 115 514.3 138.2 519.7C161.3 525 184.7 529 207.8 536.3C231 543.7 254 554.3 277 551C300 547.7 323 530.3 346 527C369 523.7 392 534.3 415.2 544.3C438.3 554.3 461.7 563.7 484.8 567.3C508 571 531 569 554 564C577 559 600 551 623 549.3C646 547.7 669 552.3 692.2 548C715.3 543.7 738.7 530.3 761.8 527.8C785 525.3 808 533.7 831 538.3C854 543 877 544 888.5 544.5L900 545L900 601L888.5 601C877 601 854 601 831 601C808 601 785 601 761.8 601C738.7 601 715.3 601 692.2 601C669 601 646 601 623 601C600 601 577 601 554 601C531 601 508 601 484.8 601C461.7 601 438.3 601 415.2 601C392 601 369 601 346 601C323 601 300 601 277 601C254 601 231 601 207.8 601C184.7 601 161.3 601 138.2 601C115 601 92 601 69 601C46 601 23 601 11.5 601L0 601Z" fill="#084766" stroke-linecap="round" stroke-linejoin="miter"></path></svg>